
<svg width="30px" height="31px" viewBox="-163 479 30 31" version="1.1" xmlns="http://www.w3.org/2000/svg" xmlns:xlink="http://www.w3.org/1999/xlink">
    <!-- Generator: Sketch 3.8.3 (29802) - http://www.bohemiancoding.com/sketch -->
    <desc>Created with Sketch.</desc>
    <defs>
        <path d="M-147.667938,507.203673 C-151.309433,505.368805 -156.039618,501.180468 -156.579633,500.537146 C-157.757568,499.133867 -160.369929,495.667419 -161.660132,491.958598 C-162.64765,489.119875 -162.544282,485.897162 -162.326427,484.799507 C-161.823941,482.267753 -160.494116,481.218172 -160.494116,481.218172 C-160.494116,481.218172 -158.819236,479.727419 -157.507395,479.529806 C-156.445941,479.369912 -155.756172,480.414905 -155.33033,480.965131 C-154.753347,481.710646 -153.050371,484.654218 -153.050371,484.654218 C-153.050371,484.654218 -152.319528,485.947099 -152.620457,487.287395 C-152.792052,488.05166 -153.637254,488.810511 -154.295002,489.406207 C-156.106245,491.046578 -155.965912,491.897073 -155.33033,492.874754 C-153.648057,495.462504 -147.251505,502.039887 -145.335907,502.53603 C-144.353289,502.79053 -142.306839,499.8348 -140.588554,499.124848 C-139.626608,498.727396 -134.892958,500.858597 -133.50917,503.28919 C-132.546021,504.980942 -134.675187,507.203673 -134.675187,507.203673 C-134.675187,507.203673 -137.051445,509.115385 -138.339809,509.365553 C-139.221181,509.536693 -143.014989,509.54819 -147.667938,507.203673 Z" id="path-1"></path>
        <mask id="mask-2" maskContentUnits="userSpaceOnUse" maskUnits="objectBoundingBox" x="0" y="0" width="29.2127055" height="29.9186154" fill="white">
            <use xlink:href="#path-1"></use>
        </mask>
    </defs>
    <use id="Rectangle-14" stroke="#0F2243" mask="url(#mask-2)" stroke-width="2" fill-opacity="0" fill="#D8D8D8" fill-rule="evenodd" xlink:href="#path-1"></use>
</svg>
