
<svg width="31px" height="25px" viewBox="-239 482 31 25" version="1.1" xmlns="http://www.w3.org/2000/svg" xmlns:xlink="http://www.w3.org/1999/xlink">
    <!-- Generator: Sketch 3.8.3 (29802) - http://www.bohemiancoding.com/sketch -->
    <desc>Created with Sketch.</desc>
    <defs></defs>
    <path d="M-232.883652,497.8141 C-233.319846,499.16283 -234.09219,500.352909 -234.821183,501.310562 C-232.039163,501.10647 -229.360275,499 -229.360275,499 C-229.360275,499 -226.613642,499.16283 -226.33375,499.16283 C-219.982475,499.16283 -215,495.418278 -215,491 C-215,486.581722 -220.148725,483 -226.5,483 C-232.851275,483 -237.959256,486.878175 -237.654539,491.28979 C-237.404253,494.913382 -234.527729,496.949343 -232.883652,497.8141 Z M-220.910542,503.483855 C-219.841176,503.647732 -217.526809,503.885098 -216.533098,503.759091 C-215.652336,503.647406 -214.569204,505.688151 -210.872261,506.110077 C-212.457993,503.756819 -212.892872,502.109843 -212.892872,502.109843 C-212.892872,502.109843 -208.639555,499.764638 -208.639555,495.099355 C-208.639555,492.391517 -210.08802,490.519916 -212.409177,489.30159 C-212.14195,490.164988 -212,491.068987 -212,492 C-212,497.599022 -218.12027,501.961708 -224.761647,502.651772 C-224.761647,502.651772 -221.700545,503.362789 -220.910542,503.483855 Z" id="Combined-Shape" stroke="#0F2243" stroke-width="1" fill-opacity="0" fill="#FFFFFF" fill-rule="evenodd"></path>
</svg>
